PathFileType	4	(X/Y/Z)	./resultDataOpenSim/trcMotMarkerGrf/sub10/qtm-14-04.trc
DataRate	CameraRate	NumFrames	NumMarkers	Units	OrigDataRate	OrigDataStartFrame	OrigNumFrames
250.000000	250.000000	8	24	m	250.000000	307	490
Frame#	Time	L.Toe.Tip			R.Toe.Tip			L.Ankle.Lat			R.Ankle.Lat			L.Ankle.Med			R.Ankle.Med			L.Heel			R.Heel			L.Knee.Lat			R.Knee.Lat			L.Knee.Med			R.Knee.Med			L.Thigh.Upper			R.Thigh.Upper			L.ASIS			R.ASIS			V.Sacral			L.Acromium			R.Acromium			C7			L.Elbow			R.Elbow			L.Wrist.Lat			R.Wrist.Lat
		X1	Y1	Z1	X2	Y2	Z2	X3	Y3	Z3	X4	Y4	Z4	X5	Y5	Z5	X6	Y6	Z6	X7	Y7	Z7	X8	Y8	Z8	X9	Y9	Z9	X10	Y10	Z10	X11	Y11	Z11	X12	Y12	Z12	X13	Y13	Z13	X14	Y14	Z14	X15	Y15	Z15	X16	Y16	Z16	X17	Y17	Z17	X18	Y18	Z18	X19	Y19	Z19	X20	Y20	Z20	X21	Y21	Z21	X22	Y22	Z22	X23	Y23	Z23	X24	Y24	Z24

307	1.224	0.11057791	0.021311636	-0.18439148	0.9307428	0.038908217	-0.036027068	0.1041777	0.16460815	-0.21784928	0.78751008	0.056113822	-0.00032649304	0.14141244	0.16090868	-0.14162153	0.80792913	0.079437838	-0.084908162	0.064303244	0.20911895	-0.1646253	0.73616481	0.03177065	-0.044656268	0.41947601	0.38168098	-0.25110047	0.83612612	0.4405496	0.024800374	0.44289827	0.33550865	-0.13906836	0.8496572	0.46208782	-0.10212279	0.53233277	0.74592392	-0.27085718	0.64747258	0.79399067	0.10718218	0.6223348	0.84589334	-0.21610714	0.68581929	0.8726353	0.0091576742	0.46039213	0.88697949	-0.051612249	0.60835998	1.3707351	-0.20187321	0.54376587	1.3713143	0.055796962	0.52416959	1.3748497	-0.084051324	0.62532831	1.2096838	-0.50247926	0.32444638	1.2095464	0.2635245	0.84514708	1.3403036	-0.55268369	0.31208259	1.4041227	0.43195287
308	1.228	0.11560208	0.02672454	-0.18692463	0.93078979	0.038881587	-0.035940494	0.11193468	0.17031958	-0.21821008	0.78759924	0.056114848	-0.00031441663	0.14915718	0.1653486	-0.14194814	0.80819937	0.079414973	-0.084910287	0.072955783	0.21510427	-0.16421608	0.73619659	0.03192942	-0.044720241	0.43037513	0.38144312	-0.25186992	0.83850713	0.43950982	0.024839621	0.4533592	0.33576271	-0.13950449	0.85362521	0.46068472	-0.10195439	0.53922597	0.74634275	-0.27032975	0.65239108	0.79452091	0.10769959	0.628799	0.84705364	-0.21570348	0.69175769	0.8739712	0.010198068	0.46633234	0.88708357	-0.051894649	0.61522911	1.3714417	-0.20188337	0.5504964	1.3721056	0.05648705	0.5304736	1.3760398	-0.083784572	0.63128189	1.2078984	-0.50155525	0.33272771	1.2062162	0.26368712	0.85149256	1.3375679	-0.55204468	0.31938022	1.3987955	0.43413882
309	1.232	0.12095929	0.032231634	-0.1893095	0.93083626	0.03885629	-0.035862361	0.11996917	0.17602426	-0.2185513	0.78769181	0.056129689	-0.00031082748	0.1571466	0.16976239	-0.14224676	0.80845762	0.079404106	-0.084930676	0.08180928	0.22110371	-0.16379386	0.73622916	0.032092746	-0.044798653	0.44137893	0.38129372	-0.25262233	0.84101365	0.43861811	0.024910372	0.46381183	0.33606449	-0.13985135	0.85720981	0.45932638	-0.10177586	0.54606662	0.74685202	-0.26971089	0.65723198	0.79509773	0.10820776	0.63517068	0.84833847	-0.21533038	0.69756983	0.87539299	0.011309115	0.47224912	0.88717266	-0.05204629	0.62198567	1.3721809	-0.20185258	0.55718512	1.3729186	0.057142177	0.53665601	1.3772935	-0.083591696	0.63714829	1.2060563	-0.50059972	0.34108393	1.20293	0.26377993	0.85777303	1.3346941	-0.55144295	0.32678464	1.3933096	0.43643914
310	1.236	0.12663014	0.037773668	-0.19150867	0.93088091	0.038830072	-0.035796456	0.12824639	0.18168378	-0.21884729	0.78777919	0.056161086	-0.00032215829	0.16537414	0.17414178	-0.14251595	0.80869976	0.079398453	-0.08497123	0.090917977	0.22706268	-0.16343139	0.73625909	0.032256215	-0.044891114	0.4524833	0.38122432	-0.25337206	0.84360328	0.43787886	0.025026579	0.47426681	0.33639226	-0.14010759	0.86043078	0.45808293	-0.10156757	0.55285393	0.74746402	-0.26901578	0.66199183	0.79571653	0.10869719	0.64143422	0.84973978	-0.21500501	0.70327219	0.87688404	0.012480542	0.47808997	0.88734241	-0.052089541	0.6286452	1.3729613	-0.20180697	0.56382069	1.3737492	0.057763969	0.54274276	1.3785959	-0.083431549	0.64292021	1.2041586	-0.4996162	0.34948519	1.1997054	0.26378478	0.86398348	1.3316773	-0.55088463	0.33429155	1.3876711	0.43883934
311	1.24	0.13259946	0.043306311	-0.19351792	0.93092127	0.038801782	-0.035742524	0.13677257	0.18726625	-0.2191051	0.78786141	0.056203885	-0.00034546224	0.1738205	0.17847896	-0.14276375	0.80892544	0.079394906	-0.085022725	0.10032303	0.23292605	-0.16318485	0.7362865	0.032416055	-0.044990488	0.46366562	0.38122546	-0.25412694	0.84627475	0.43728669	0.025202525	0.48474331	0.3367486	-0.14030909	0.86330825	0.45699495	-0.10132592	0.55959409	0.74818121	-0.26826183	0.66668382	0.79637683	0.10917624	0.64758342	0.85124438	-0.21474296	0.70887359	0.87842378	0.013694202	0.48388332	0.88770138	-0.052092251	0.63521972	1.3737867	-0.20176579	0.57039466	1.374592	0.058360373	0.54876463	1.3799355	-0.083276945	0.64858892	1.202216	-0.49860338	0.35788181	1.1965477	0.26371675	0.87013059	1.3285163	-0.55037076	0.34189318	1.3818899	0.44132553
312	1.244	0.13887623	0.048803703	-0.19535462	0.93095676	0.038772305	-0.035696182	0.14554571	0.19274917	-0.21933621	0.78794453	0.056251208	-0.00036955436	0.18246548	0.1827766	-0.14299683	0.80913475	0.079396763	-0.085071318	0.10998863	0.2386736	-0.16304676	0.736313	0.032572713	-0.045084077	0.47488404	0.38130395	-0.25486785	0.84902855	0.43682527	0.025430721	0.49527716	0.33715907	-0.14052661	0.86586792	0.45607625	-0.10105848	0.56629874	0.74900511	-0.26747065	0.67132792	0.79708322	0.10965944	0.65362594	0.85283884	-0.21454691	0.71436958	0.8799961	0.014927659	0.4897047	0.88836346	-0.05211765	0.6417183	1.3746575	-0.20173874	0.57690767	1.3754465	0.058940051	0.5547343	1.3813006	-0.083126436	0.65414579	1.2002487	-0.49756018	0.36624627	1.1934573	0.26359696	0.87622151	1.3252185	-0.54989709	0.34957743	1.3759775	0.44388894
313	1.248	0.14548795	0.054251929	-0.197035	0.93098852	0.038743459	-0.035652151	0.15452729	0.1981198	-0.21954291	0.78803382	0.056299165	-0.00038305381	0.19129886	0.18704125	-0.14321266	0.80932571	0.07940903	-0.085106351	0.11982607	0.24430392	-0.16295123	0.73633874	0.032727724	-0.04515952	0.48608743	0.3814819	-0.25556762	0.85185113	0.43647149	0.025697529	0.50590251	0.3376531	-0.14081873	0.86814409	0.45531723	-0.10078394	0.57297728	0.74993722	-0.26666077	0.6759377	0.79784406	0.11015585	0.65957163	0.85451079	-0.21441069	0.71975067	0.88158989	0.016165288	0.49559648	0.88939789	-0.052197082	0.64814719	1.3755747	-0.20173091	0.58336518	1.3763187	0.059508422	0.56064985	1.3826807	-0.082989	0.65958825	1.1982818	-0.49648746	0.37459272	1.1904388	0.26342772	0.88225494	1.3217973	-0.54946008	0.35733172	1.3699439	0.44652025
314	1.252	0.15245104	0.059635308	-0.19856069	0.93101632	0.03871668	-0.035607169	0.16369216	0.20337267	-0.21974873	0.78812885	0.056347599	-0.00038334356	0.20031431	0.19127041	-0.14340907	0.80949486	0.079433367	-0.085124562	0.12976707	0.24980419	-0.1628367	0.73636176	0.032879775	-0.04521292	0.49723583	0.38179272	-0.25622381	0.8547182	0.43620734	0.025998974	0.51661883	0.33823792	-0.14118998	0.87017895	0.45469085	-0.10053522	0.57963538	0.75097384	-0.26584887	0.68051754	0.79866806	0.11066429	0.66542944	0.8562488	-0.21432368	0.72501509	0.88319313	0.01740065	0.50149646	0.89079936	-0.052317035	0.65450863	1.3765388	-0.20174649	0.58976683	1.3772151	0.060068657	0.56651032	1.3840712	-0.082867997	0.66491648	1.196337	-0.49538271	0.38294863	1.1875006	0.26319373	0.8882295	1.3182605	-0.54906025	0.36515024	1.363794	0.44920249
